# xmcd
#
# Track frame offsets: 
#        150
#        13823
#        27504
#        51019
#        69932
#        82723
#        99634
#        117600
#        129168
#        148975
#        167581
#        179860
#        196529
#        218433
#        235305
#        253092
#        277435
#        293106
#        312881
#
# Disc length: 4538 seconds
#
# Revision: 1
# Processed by: cddbd v1.5.2PL0 Copyright (c) Steve Scherf et al.
# Submitted via: ExactAudioCopy v0.99pb5
#
DISCID=1911b813
DTITLE=Judy Henske - Big Judy - How Far This Music Goes 1962-2004 (Dis
DTITLE=c 2)
DYEAR=2007
DGENRE=Country
TTITLE0=Snowblind
TTITLE1=Lullaby
TTITLE2=Raider
TTITLE3=Rapture
TTITLE4=Lazy
TTITLE5=Father Of Souls
TTITLE6=Reno
TTITLE7=Lullabye II (Summer Carol)
TTITLE8=Flying To Morning
TTITLE9=Yellow Beach Umbrella
TTITLE10=Master Of Love
TTITLE11=Tin Star
TTITLE12=Blue Fortune
TTITLE13=Wish I Had My Old Guitar
TTITLE14=Ace In The Hole
TTITLE15=Cocktail World
TTITLE16=Duncan and Brady
TTITLE17=Western Wisconsin
TTITLE18=Hollywood People
EXTD=
EXTT0=
EXTT1=
EXTT2=
EXTT3=
EXTT4=
EXTT5=
EXTT6=
EXTT7=
EXTT8=
EXTT9=
EXTT10=
EXTT11=
EXTT12=
EXTT13=
EXTT14=
EXTT15=
EXTT16=
EXTT17=
EXTT18=
PLAYORDER=
